<svg xmlns="http://www.w3.org/2000/svg" viewBox="0 0 32 32" width="20" height="20">
  <path fill="#25D366" d="M16 0C7.163 0 0 7.163 0 16c0 2.82.732 5.47 2.01 7.81L0 32l8.39-2.19A15.91 15.91 0 0016 32c8.837 0 16-7.163 16-16S24.837 0 16 0z"/>
  <path fill="#fff" d="M24.26 22.34c-.34-.17-2.01-.99-2.32-1.1-.31-.11-.54-.17-.77.17-.23.34-.89 1.1-1.09 1.33-.2.23-.4.26-.74.09-.34-.17-1.44-.53-2.74-1.69-1.01-.9-1.69-2.01-1.89-2.35-.2-.34-.02-.52.15-.69.15-.15.34-.4.51-.6.17-.2.23-.34.34-.57.11-.23.06-.43-.03-.6-.09-.17-.77-1.85-1.06-2.53-.28-.68-.57-.59-.77-.6-.2-.01-.43-.01-.66-.01-.23 0-.6.09-.91.43-.31.34-1.2 1.17-1.2 2.85s1.23 3.3 1.4 3.53c.17.23 2.42 3.7 5.86 5.18.82.35 1.46.56 1.96.72.82.26 1.57.22 2.16.13.66-.1 2.01-.82 2.29-1.61.28-.79.28-1.46.2-1.61-.09-.15-.31-.23-.65-.4z"/>
</svg>
